<svg width="53" height="16" viewBox="0 0 53 16" fill="none" xmlns="http://www.w3.org/2000/svg">
<path fill-rule="evenodd" clip-rule="evenodd" d="M8.35992 6.9679V0.00103524L10.9562 0.0113872L12.4666 4.5031L13.9402 0H16.5161V6.96686H14.8844V1.83436L13.1549 6.9679H11.7259L9.99057 1.83333V6.9679H8.35992ZM0.428711 6.96893L3.23531 0.00207037H5.36234L8.16506 6.96893H6.29787L5.78308 5.57348H2.77288L2.25423 6.96893H0.428711ZM4.27294 1.62396L4.27265 1.62318L4.27363 1.62216L4.27294 1.62396ZM3.35262 4.06003L4.27294 1.62396L5.19171 4.06003H3.35262ZM17.6318 0.00103524V6.9679L22.9544 6.96686V5.45548H19.28V4.21738H22.869V2.75051H19.28V1.55901H22.9544V0.00103524H17.6318ZM23.8996 0.00207037V6.96893H25.5311V4.49379H26.2175L28.1739 6.96893H30.1672L28.0207 4.40164C28.5157 4.34884 28.974 4.09976 29.3054 3.7036C29.6368 3.30744 29.817 2.793 29.8104 2.2619C29.8104 0.796064 28.7323 0.00103524 27.5292 0.00103524H23.8996V0.00207037ZM27.3954 1.56004H25.5311V3.0269H27.4197C27.7464 3.0269 28.168 2.75673 28.168 2.29295C28.168 1.9327 27.8424 1.56004 27.3954 1.56004ZM32.1419 6.9679H30.4755V0.00103524H32.141L32.1419 6.9679ZM35.7319 6.9679H36.0905V6.96686L36.7779 5.44512H36.3485C35.3092 5.44512 34.5888 4.87887 34.5888 3.53001C34.5888 2.39336 35.219 1.65011 36.111 1.65011H37.9801V0H36.1769C33.9801 0 32.936 1.47205 32.936 3.51242C32.936 5.50413 33.9916 6.9679 35.7319 6.9679ZM39.6408 0.00207037L36.8341 6.96893H38.6616L39.1793 5.57348H42.1894L42.7042 6.96893H44.5725L41.7678 0.00207037H39.6408ZM40.6786 1.62454L40.6781 1.62318H40.6791L40.6786 1.62454ZM40.6786 1.62454L41.5962 4.06107H39.759L40.6786 1.62454ZM44.7624 6.9679V0.00103524H46.8371L49.4838 4.37784V0H51.1154V6.96686H49.1087L46.3941 2.47514V6.9679H44.7624ZM7.74431 9.03207V15.9989L13.0677 15.9978V14.4865H9.39338V13.2484H12.9814V11.7815H9.39241V10.59H13.0667V9.03207H7.74431ZM33.8279 15.9989V9.03207H39.1503V10.59H35.476V11.7815H39.0474V13.2484H35.476V14.4865H39.1503V15.9978L33.8279 15.9989ZM15.8656 12.5579L13.2742 15.9989H15.2993L16.7972 13.853L18.3309 15.9989H20.3862L17.79 12.5155L20.4085 9.03104H18.4336L16.8476 11.2112L15.2674 9.03104H13.2121L15.8656 12.5579ZM20.5801 9.03207V16H22.2543V13.8002H23.9703C25.4235 13.8002 26.5248 12.9762 26.5248 11.3757C26.5248 10.0507 25.661 9.03207 24.1826 9.03207H20.5801ZM24.0624 10.6087H22.2543V12.2122H24.0576C24.5336 12.2122 24.8671 11.8757 24.8671 11.4099C24.8671 10.9151 24.5317 10.6087 24.0624 10.6087ZM27.2335 9.03104V15.9978H28.8652V13.5238H29.5516L31.5079 15.9978H33.5012L31.3547 13.4316C31.8496 13.3788 32.3081 13.1298 32.6395 12.7336C32.9708 12.3374 33.151 11.823 33.1443 11.2919C33.1443 9.82503 32.0663 9.03104 30.8642 9.03104H27.2335ZM30.7295 10.59H28.8661V12.0569H30.7537C31.0813 12.0569 31.5021 11.7857 31.5021 11.323C31.5021 10.9627 31.1773 10.59 30.7295 10.59ZM39.9064 15.9989V14.4865H43.1705C43.6544 14.4865 43.8627 14.207 43.8627 13.9016C43.8627 13.6087 43.6544 13.3126 43.1705 13.3126H41.696C40.4134 13.3126 39.6989 12.4782 39.6989 11.2256C39.6989 10.1087 40.3533 9.03104 42.2583 9.03104H45.4352L44.7489 10.5993H42.0014C41.4759 10.5993 41.3141 10.8933 41.3141 11.1739C41.3141 11.4637 41.5137 11.7815 41.9151 11.7815H43.4605C44.8904 11.7815 45.511 12.647 45.511 13.7815C45.511 15 44.8196 15.9989 43.3828 15.9989H39.9064ZM45.8928 14.4865V15.9989H49.3703C50.8062 15.9989 51.4974 15 51.4974 13.7815C51.4974 12.647 50.877 11.7815 49.4479 11.7815H47.9026C47.5012 11.7815 47.3016 11.4637 47.3016 11.1739C47.3016 10.8933 47.4634 10.5993 47.9879 10.5993H50.7354L51.4227 9.03104H48.2458C46.3399 9.03104 45.6855 10.1087 45.6855 11.2256C45.6855 12.4782 46.3998 13.3126 47.6825 13.3126H49.158C49.6418 13.3126 49.8502 13.6087 49.8502 13.9016C49.8502 14.207 49.6408 14.4865 49.158 14.4865H45.8928Z" fill="black"/>
</svg>
