<svg width="47" height="20" viewBox="0 0 47 20" fill="none" xmlns="http://www.w3.org/2000/svg">
<path d="M8.72464 2.57911C9.26815 1.88483 9.63698 0.952613 9.5397 0C8.74407 0.0404037 7.77316 0.53607 7.21106 1.2309C6.70634 1.82591 6.25963 2.79716 6.37608 3.70984C7.26922 3.78895 8.16152 3.25391 8.72464 2.57911Z" fill="black"/>
<path d="M9.52987 3.8881C8.23282 3.80919 7.13002 4.63989 6.51062 4.63989C5.89087 4.63989 4.94236 3.92786 3.91647 3.94705C2.5812 3.96708 1.34224 4.73811 0.664646 5.96441C-0.729039 8.41762 0.296853 12.0566 1.65214 14.0546C2.3103 15.0431 3.10349 16.1314 4.14864 16.0923C5.13613 16.0528 5.52319 15.4393 6.72353 15.4393C7.92299 15.4393 8.27164 16.0923 9.31696 16.0726C10.401 16.0528 11.0787 15.0836 11.7368 14.0942C12.4919 12.9673 12.801 11.8793 12.8204 11.8196C12.801 11.7998 10.7301 10.9885 10.7109 8.55566C10.6913 6.51863 12.3367 5.5497 12.4142 5.48961C11.485 4.08611 10.0332 3.92786 9.52987 3.8881Z" fill="black"/>
<path fill-rule="evenodd" clip-rule="evenodd" d="M25.6052 6.00532C25.6052 3.11593 23.6422 1.13135 20.8231 1.13135V1.13135H15.376V15.9693H17.6311V10.8999H20.7524C23.6018 10.8999 25.6052 8.90504 25.6052 6.00532ZM20.2187 8.96672H17.6311V3.07487H20.2288C22.1821 3.07487 23.2996 4.14431 23.2996 6.01564C23.2996 7.88716 22.1821 8.96672 20.2187 8.96672Z" fill="black"/>
<path fill-rule="evenodd" clip-rule="evenodd" d="M30.1313 9.69684C27.614 9.84083 26.1943 11.0027 26.1943 12.8948C26.1943 14.8382 27.6443 16.1543 29.7184 16.1543C31.1078 16.1543 32.447 15.3935 33.0611 14.1904H33.1112V15.9693H35.1954V8.51434C35.1954 6.34471 33.5544 4.95654 30.987 4.95654C28.3691 4.95654 26.7381 6.39608 26.6173 8.34992H28.6712C28.8623 7.38322 29.6477 6.76638 30.9066 6.76638C32.2353 6.76638 33.0308 7.48615 33.0308 8.68928V9.5221L30.1313 9.69684ZM33.0308 11.0646V11.918C33.0308 13.3266 31.8426 14.3961 30.3224 14.3961C29.1544 14.3961 28.3893 13.779 28.3893 12.8332C28.3893 11.9077 29.1241 11.3216 30.423 11.229L33.0308 11.0646Z" fill="black"/>
<path d="M37.1634 19.9487V18.1492C37.3242 18.1902 37.6866 18.1902 37.868 18.1902C38.8747 18.1902 39.4185 17.7585 39.7506 16.648C39.7506 16.6273 39.9421 15.9899 39.9421 15.9796L36.1162 5.15186H38.4719L41.1504 13.9539H41.1904L43.8689 5.15186H46.1645L42.1972 16.5347C41.2914 19.1569 40.2443 20.0001 38.0493 20.0001C37.868 20.0001 37.3242 19.9795 37.1634 19.9487Z" fill="black"/>
</svg>
