<svg width="28" height="16" viewBox="0 0 28 16" fill="none" xmlns="http://www.w3.org/2000/svg">
<path fill-rule="evenodd" clip-rule="evenodd" d="M16.084 0.390045C17.1044 0.0714982 18.1789 -0.041161 19.2438 0.0587381C20.3158 0.144628 21.3588 0.445988 22.3096 0.944474C23.2602 1.44297 24.0986 2.12814 24.7737 2.95827C26.0131 4.50811 26.6294 6.45831 26.5039 8.43236C26.3783 10.4064 25.5198 12.2644 24.094 13.6476C22.6683 15.0308 20.7762 15.8411 18.7833 15.9221C16.7903 16.0032 14.8378 15.3493 13.3026 14.0865C12.13 15.0784 10.6955 15.7163 9.16873 15.9251C7.64198 16.1338 6.0869 15.9044 4.68748 15.2641C3.28807 14.6237 2.10289 13.5994 1.27219 12.312C0.441482 11.0247 0 9.52834 0 8.00001C0 6.47166 0.441482 4.97531 1.27219 3.68798C2.10289 2.40064 3.28807 1.37623 4.68748 0.735935C6.0869 0.0956382 7.64198 -0.133753 9.16873 0.0749261C10.6955 0.283605 12.13 0.921612 13.3026 1.91345C14.1178 1.22657 15.0636 0.708592 16.084 0.390045ZM18.8524 13.9022C20.3526 13.8344 21.7702 13.2016 22.8162 12.1329C23.3625 11.575 23.7926 10.9156 24.0814 10.1925C24.3704 9.4694 24.5126 8.69688 24.4999 7.91921C24.4871 7.14154 24.3197 6.37401 24.0072 5.66062C23.6948 4.94725 23.2434 4.30203 22.679 3.76197C21.6244 2.74751 20.2254 2.16089 18.7568 2.11743C17.2882 2.07395 15.8563 2.57677 14.7427 3.52706C15.6348 4.85566 16.1108 6.41617 16.1108 8.01236C16.1108 9.60854 15.6348 11.1691 14.7427 12.4977C15.8822 13.4677 17.3521 13.9699 18.8524 13.9022Z" fill="black"/>
</svg>
