<svg width="58" height="16" viewBox="0 0 58 16" fill="none" xmlns="http://www.w3.org/2000/svg">
<path fill-rule="evenodd" clip-rule="evenodd" d="M52.5152 12.5241L54.3091 0.329027V0.330081C54.3226 0.238407 54.366 0.154828 54.4319 0.0943345C54.4978 0.033842 54.5816 0.00039711 54.6683 0H56.6872C56.7398 6.29737e-05 56.7918 0.0123151 56.8396 0.0359126C56.8874 0.05951 56.9297 0.0938919 56.9639 0.13669C56.998 0.179489 57.0231 0.229687 57.0374 0.283827C57.0515 0.337968 57.0546 0.394764 57.0463 0.450303L55.2782 12.425C55.2317 12.7414 54.9772 12.9734 54.6782 12.9734H52.8745C52.822 12.9733 52.77 12.961 52.7224 12.9375C52.6747 12.914 52.6323 12.8797 52.5982 12.837C52.5641 12.7943 52.539 12.7443 52.5248 12.6903C52.5103 12.6363 52.5072 12.5796 52.5152 12.5241ZM3.24459 0.0010545H7.61386C9.07621 0.0010545 10.1774 0.413393 10.799 1.19272C11.3644 1.90246 11.5519 2.91695 11.3556 4.20669C10.9214 7.1574 9.26073 8.6454 6.38242 8.6454H4.99902C4.70102 8.6454 4.44644 8.87741 4.40006 9.19377L3.92348 12.4239C3.87611 12.7403 3.62252 12.9723 3.32354 12.9723H1.23758C1.18497 12.9724 1.13297 12.9603 1.08517 12.9368C1.03736 12.9133 0.994885 12.8791 0.960657 12.8364C0.926429 12.7937 0.901263 12.7436 0.886894 12.6895C0.872524 12.6354 0.869291 12.5786 0.877417 12.5231L2.64466 0.549433C2.66702 0.396575 2.73978 0.257295 2.84979 0.156735C2.95981 0.056174 3.09984 0.000958479 3.24459 0.0010545ZM5.52296 6.05114C6.6814 6.05114 7.87929 6.05114 8.11809 4.37437C8.2059 3.78592 8.13486 3.35987 7.90594 3.07303C7.52111 2.59215 6.77711 2.59215 5.98773 2.59215H5.68578C5.59889 2.59203 5.51483 2.62515 5.44878 2.68548C5.38273 2.74582 5.33904 2.82943 5.32562 2.92116L4.86383 6.05114H5.52296ZM20.6753 4.3206H18.5835C18.4966 4.3207 18.4127 4.35388 18.3466 4.41418C18.2806 4.47449 18.2368 4.55796 18.2232 4.64961L18.1305 5.27498L17.9845 5.04825C17.5306 4.34591 16.5212 4.10967 15.5127 4.10967C13.2008 4.10967 11.2253 5.9826 10.8415 8.60743C10.6412 9.91722 10.9254 11.1701 11.621 12.0432C12.2584 12.8458 13.1702 13.1811 14.2556 13.1811C16.1195 13.1811 17.1527 11.9009 17.1527 11.9009L17.0589 12.522C17.0506 12.5776 17.0537 12.6344 17.068 12.6885C17.0822 12.7426 17.1072 12.7928 17.1414 12.8356C17.1755 12.8784 17.218 12.9128 17.2658 12.9364C17.3135 12.96 17.3655 12.9723 17.4181 12.9723H19.3027C19.6027 12.9723 19.8553 12.7403 19.9027 12.4239L21.0335 4.76983C21.0418 4.71444 21.0387 4.65777 21.0245 4.60377C21.0104 4.54976 20.9853 4.49967 20.9513 4.45697C20.9173 4.41427 20.8749 4.37996 20.8273 4.35642C20.7797 4.33287 20.7278 4.32065 20.6753 4.3206ZM15.3982 10.8083C16.608 10.8083 17.5571 9.95097 17.7584 8.67388V8.67281C17.8493 8.05484 17.724 7.4938 17.4053 7.09095C17.0865 6.69338 16.604 6.48247 16.009 6.48247C14.818 6.48247 13.853 7.36726 13.6645 8.63485C13.5659 9.256 13.6833 9.81386 13.9931 10.2062C14.3049 10.6006 14.7904 10.8083 15.3982 10.8083ZM31.8195 4.3206H29.7178C29.6185 4.32063 29.5208 4.34657 29.433 4.3962C29.3454 4.44583 29.2703 4.51763 29.2145 4.60532L26.3135 9.17164L25.085 4.7846C25.0476 4.65068 24.9707 4.53324 24.8657 4.44966C24.7609 4.36609 24.6337 4.32083 24.5029 4.3206H22.4356C22.3776 4.32065 22.3204 4.33548 22.2688 4.36383C22.2174 4.39219 22.1729 4.43328 22.1391 4.48368C22.1053 4.53408 22.0833 4.59236 22.0748 4.65367C22.0663 4.715 22.0716 4.77759 22.0903 4.83628L24.4061 12.1002L22.2284 15.3852C22.1896 15.4433 22.1666 15.512 22.1619 15.5833C22.1571 15.6545 22.1709 15.7258 22.2015 15.7894C22.2322 15.8529 22.2786 15.9062 22.3358 15.9433C22.393 15.9805 22.4586 16.0001 22.5254 16H24.6262C24.7241 16.0001 24.8205 15.9748 24.9074 15.9263C24.9942 15.8778 25.0687 15.8076 25.1245 15.7216L32.1185 4.93225C32.1565 4.87388 32.1789 4.80548 32.1832 4.73447C32.1874 4.66348 32.1734 4.5926 32.1425 4.52954C32.1117 4.46649 32.0653 4.41367 32.0083 4.37683C31.9514 4.33999 31.8861 4.32054 31.8195 4.3206ZM34.4116 0.0010545H38.7809H38.7819C40.2452 0.0010545 41.3454 0.413393 41.9661 1.19378C42.5315 1.90351 42.7209 2.91801 42.5236 4.20775C42.0895 7.15844 40.4288 8.64646 37.5495 8.64646H36.167C35.8691 8.64646 35.6135 8.87846 35.5681 9.19484L35.0659 12.5895C35.0503 12.6963 34.9997 12.7936 34.923 12.864C34.8462 12.9344 34.7486 12.9731 34.6475 12.9734H32.4046C32.3521 12.9733 32.3002 12.961 32.2526 12.9375C32.2048 12.914 32.1625 12.8797 32.1283 12.837C32.0943 12.7943 32.0691 12.7443 32.0548 12.6903C32.0405 12.6363 32.0373 12.5796 32.0454 12.5241L33.8127 0.549433C33.8591 0.23306 34.1137 0.0010545 34.4116 0.0010545ZM39.2852 4.37437C39.0474 6.05114 37.8495 6.05114 36.69 6.05114H36.0319L36.4946 2.92116C36.5078 2.82951 36.5514 2.74593 36.6172 2.68557C36.6831 2.62522 36.7671 2.59207 36.8538 2.59215H37.1558C37.9451 2.59215 38.6892 2.59215 39.0739 3.07303C39.3029 3.35987 39.3729 3.78592 39.2852 4.37437ZM49.7504 4.3206H51.8424C51.895 4.32055 51.947 4.33267 51.9948 4.35613C52.0427 4.37959 52.0852 4.41383 52.1195 4.45651C52.1538 4.49917 52.1791 4.54927 52.1936 4.60336C52.2081 4.65744 52.2115 4.71423 52.2034 4.76983L51.0716 12.4239C51.0254 12.7403 50.7707 12.9723 50.4728 12.9723H48.5881C48.5355 12.9722 48.4835 12.96 48.4356 12.9364C48.3878 12.9128 48.3453 12.8784 48.3112 12.8357C48.2769 12.7929 48.2518 12.7427 48.2374 12.6886C48.2231 12.6344 48.2198 12.5776 48.2279 12.522L48.3207 11.9009C48.3207 11.9009 47.2876 13.1811 45.4247 13.1811C44.3392 13.1811 43.4284 12.8458 42.79 12.0432C42.0944 11.1701 41.8111 9.91722 42.0105 8.60743C42.3953 5.9826 44.3698 4.10967 46.6817 4.10967C47.6902 4.10967 48.6996 4.34591 49.1516 5.04825L49.2995 5.27498L49.3923 4.64961C49.4053 4.55804 49.4485 4.47449 49.5143 4.41411C49.58 4.35373 49.6638 4.32055 49.7504 4.3206ZM48.9255 8.67388C48.7252 9.95097 47.7749 10.8083 46.5642 10.8083C45.9584 10.8083 45.472 10.6006 45.1601 10.2062C44.8503 9.81386 44.7338 9.256 44.8316 8.63485C45.021 7.36726 45.9851 6.48247 47.1761 6.48247C47.77 6.48247 48.2536 6.69338 48.5712 7.09095C48.892 7.4938 49.0183 8.05484 48.9255 8.67281V8.67388Z" fill="black"/>
</svg>
