<svg width="47" height="18" viewBox="0 0 47 18" fill="none" xmlns="http://www.w3.org/2000/svg">
<path fill-rule="evenodd" clip-rule="evenodd" d="M34.0565 1.53551C32.9708 1.08692 31.8163 0.859727 30.6528 0.865589C26.9058 0.865589 24.2663 3.01042 24.2497 6.0762C24.2191 8.33837 26.139 9.5936 27.5758 10.3481C29.0444 11.119 29.5429 11.6224 29.5429 12.3087C29.5288 13.3648 28.3566 13.8505 27.2643 13.8505C25.7488 13.8505 24.9376 13.5995 23.7043 13.0128L23.2046 12.7617L22.673 16.2955C23.5631 16.7321 25.2034 17.1182 26.9058 17.1346C30.8868 17.1346 33.4794 15.0239 33.5098 11.7562C33.5251 9.96335 32.5117 8.59077 30.3248 7.46652C28.9974 6.74612 28.185 6.2604 28.185 5.52362C28.2001 4.85371 28.8714 4.16605 30.3705 4.16605C31.343 4.13567 32.3093 4.34184 33.1971 4.76912L33.5404 4.93694L34.0565 1.53551ZM20.3004 16.8999H16.5039L18.8777 1.15075H22.6718L20.3004 16.8999ZM40.6149 6.91394C40.6149 6.91394 39.4133 10.4163 39.1005 11.3209H42.2551C42.0986 10.5337 41.3803 6.76385 41.3803 6.76385L41.1146 5.40629C40.9976 5.7734 40.8254 6.28474 40.7166 6.60773L40.7165 6.60798L40.7163 6.6086C40.6514 6.80129 40.6091 6.92668 40.6149 6.91394ZM43.7846 1.15075H40.8488C39.9436 1.15075 39.2569 1.43591 38.8653 2.45783L33.2289 16.8999H37.2112L38.0071 14.5368H42.8794C42.9887 15.0907 43.3319 16.8999 43.3319 16.8999H46.8464L43.7846 1.15075ZM9.61881 11.8899L13.3353 1.15211H17.3482L11.3836 16.8836H7.37084L3.96582 3.11138C6.37145 4.46894 8.52534 7.1991 9.21193 9.7123L9.61881 11.8899Z" fill="black"/>
<path d="M6.16794 1.1521H0.0635738L0 1.46727C4.76296 2.77573 7.91749 5.92747 9.21312 9.71229L7.8857 2.47556C7.667 1.46864 6.99567 1.18485 6.1692 1.1521H6.16794Z" fill="black"/>
</svg>
